<svg
  viewBox="0 0 100 100"
  width="100"
  height="100"
  xmlns="http://www.w3.org/2000/svg"
>
  <circle
    cx="50"
    cy="50"
    r="50"
    fill="none"
    stroke="#67e8f9"
    strokeOpacity="0.2"
    strokeWidth="1"
  />
  <circle
    cx="50"
    cy="50"
    r="42"
    fill="none"
    stroke="#67e8f9"
    strokeOpacity="0.35"
    strokeWidth="2"
  />
  <g transform-origin="50px 50px">
    <rect
      x="48"
      y="14"
      width="4"
      height="12"
      rx="1"
      fill="#a5f3fc"
      opacity="0.8"
      transform="rotate(0 50 50)"
    />
    <rect
      x="48"
      y="14"
      width="4"
      height="12"
      rx="1"
      fill="#a5f3fc"
      opacity="0.8"
      transform="rotate(60 50 50)"
    />
    <rect
      x="48"
      y="14"
      width="4"
      height="12"
      rx="1"
      fill="#a5f3fc"
      opacity="0.8"
      transform="rotate(120 50 50)"
    />
    <rect
      x="48"
      y="14"
      width="4"
      height="12"
      rx="1"
      fill="#a5f3fc"
      opacity="0.8"
      transform="rotate(180 50 50)"
    />
    <rect
      x="48"
      y="14"
      width="4"
      height="12"
      rx="1"
      fill="#a5f3fc"
      opacity="0.8"
      transform="rotate(240 50 50)"
    />
    <rect
      x="48"
      y="14"
      width="4"
      height="12"
      rx="1"
      fill="#a5f3fc"
      opacity="0.8"
      transform="rotate(300 50 50)"
    />
    <circle
      cx="50"
      cy="50"
      r="22"
      fill="none"
      stroke="#22d3ee"
      strokeOpacity="0.6"
      strokeWidth="2"
    />
  </g>
  <circle cx="50" cy="50" r="8" fill="#67e8f9" opacity="0.8" />
</svg>